<svg id="Capa_1" enable-background="new 0 0 512 512" height="512" viewBox="0 0 512 512" width="512" xmlns="http://www.w3.org/2000/svg"><g><path d="m379.749 431.512c0 7.932-6.43 14.362-14.362 14.362h-351.025c-7.932 0-14.362-6.43-14.362-14.362v-352.225c0-7.269 5.892-13.161 13.161-13.161h353.427c7.268 0 13.161 5.892 13.161 13.161z" fill="#ffd064"/><path d="m366.588 66.126h-27.213c7.268 0 13.161 5.892 13.161 13.161v366.588h12.85c7.932 0 14.362-6.43 14.362-14.362v-352.226c.001-7.269-5.892-13.161-13.16-13.161z" fill="#ffc250"/><g><path d="m288.984 390.999c-9.381 9.131-24.388 8.928-33.519-.453l-5.19-5.332c-.78-.802-.763-2.084.039-2.864l37.285-36.292c.392-.381.613-.905.613-1.451s-.221-1.07-.613-1.451l-37.285-36.293c-.802-.78-.819-2.063-.039-2.864l5.19-5.332c9.131-9.381 24.138-9.584 33.519-.453l35.255 34.316c1.828 1.779 3.316 3.906 4.189 6.303 2.318 6.368.59 13.201-3.991 17.659z" fill="#f9f6f6"/></g><path d="m213.266 128.59h-46.784c-4.33 0-7.84-3.51-7.84-7.84v-54.624h62.465v54.624c0 4.33-3.511 7.84-7.841 7.84z" fill="#26457d"/><path d="m198.333 66.126v54.624c0 4.33-3.51 7.84-7.84 7.84h22.773c4.33 0 7.84-3.51 7.84-7.84v-54.624z" fill="#21386b"/><g><g><path d="m73.498 375.573c-4.264 0-7.721-3.456-7.721-7.721v-58.534c0-4.265 3.457-7.721 7.721-7.721s7.721 3.456 7.721 7.721v58.534c0 4.264-3.457 7.721-7.721 7.721z" fill="#26457d"/></g><g><path d="m98.188 331.998c-1.96 0-3.92-.741-5.425-2.228l-19.265-19.026-19.266 19.026c-3.035 2.997-7.923 2.965-10.919-.067-2.996-3.034-2.966-7.923.068-10.919l24.691-24.385c3.007-2.97 7.844-2.971 10.851 0l24.691 24.385c3.034 2.996 3.065 7.885.068 10.919-1.51 1.529-3.502 2.295-5.494 2.295z" fill="#26457d"/></g></g><g><g><path d="m152.614 375.573c-4.264 0-7.721-3.456-7.721-7.721v-58.534c0-4.265 3.457-7.721 7.721-7.721s7.721 3.456 7.721 7.721v58.534c0 4.264-3.457 7.721-7.721 7.721z" fill="#26457d"/></g><g><path d="m127.923 331.998c-1.993 0-3.984-.766-5.494-2.295-2.996-3.034-2.966-7.923.068-10.919l24.691-24.385c3.007-2.97 7.844-2.97 10.851 0l24.691 24.385c3.034 2.996 3.065 7.885.068 10.919-2.996 3.032-7.885 3.064-10.919.067l-19.266-19.026-19.265 19.026c-1.504 1.486-3.465 2.228-5.425 2.228z" fill="#26457d"/></g></g><g><path d="m152.614 411.118h-79.116c-4.264 0-7.721-3.456-7.721-7.721s3.457-7.721 7.721-7.721h79.116c4.264 0 7.721 3.456 7.721 7.721 0 4.264-3.457 7.721-7.721 7.721z" fill="#26457d"/></g><path d="m389.667 152.502h-114.938c-2.828 0-5.12-2.292-5.12-5.12v-23.336c0-2.292-2.753-3.461-4.402-1.869l-66.773 64.449c-1.827 1.763-1.827 4.69 0 6.453l66.773 64.449c1.649 1.592 4.402.423 4.402-1.869v-23.399c0-2.828 2.292-5.12 5.12-5.12h115.447c25.945 0 47.626 21.231 47.181 47.172-.432 25.196-21.062 45.56-46.359 45.56h-11.25v74.636h11.25c66.957 0 121.385-54.666 121-121.711-.384-66.769-55.561-120.295-122.331-120.295z" fill="#95d6a4"/><g><path d="m400.664 394.121v-75.273c-3.12.664-6.351 1.023-9.666 1.023h-11.25v74.636h11.25c3.254 0 6.477-.132 9.666-.386z" fill="#78c2a4"/></g><g><path d="m389.667 152.502h-25.808c66.77 0 121.947 53.525 122.331 120.295.357 62.111-46.333 113.591-106.442 120.832v.879h11.25c66.957 0 121.385-54.666 121-121.711-.384-66.769-55.561-120.295-122.331-120.295z" fill="#78c2a4"/></g></g></svg>