<?xml version="1.0" encoding="utf-8"?>
<!-- Generator: Adobe Illustrator 24.1.3, SVG Export Plug-In . SVG Version: 6.00 Build 0)  -->
<svg version="1.1" id="Capa_1" xmlns="http://www.w3.org/2000/svg" xmlns:xlink="http://www.w3.org/1999/xlink" x="0px" y="0px"
	 viewBox="0 0 67.3 67.3" style="enable-background:new 0 0 67.3 67.3;" xml:space="preserve">
<style type="text/css">
	.st0{fill:#0092CB;}
</style>
<g>
	<path d="M33.6,0C15.2,0,0,15.1,0,33.6s15.1,33.6,33.6,33.6s33.6-15.1,33.6-33.6S52.1,0,33.6,0z M33.6,58.9
		c-13.9,0-25.2-11.4-25.2-25.2S19.8,8.4,33.6,8.4s25.2,11.4,25.2,25.2S47.5,58.9,33.6,58.9z"/>
	<path class="st0" d="M43.3,22.3L29.4,36.2l-5.9-5.9c-1.7-1.7-4.2-1.7-5.9,0s-1.7,4.2,0,5.9l8.8,8.8c0.8,0.8,1.7,1.3,2.9,1.3
		s2.1-0.4,2.9-1.3l16.8-16.8c1.7-1.7,1.7-4.2,0-5.9C47.5,20.6,45,20.6,43.3,22.3z"/>
</g>
</svg>
