<svg fill="#000000" xmlns="http://www.w3.org/2000/svg"  viewBox="0 0 64 64" width="64px" height="64px"><path d="M60.586,15.899c0-1.068-0.416-2.073-1.172-2.828l-8.485-8.485c-1.511-1.512-4.146-1.512-5.657,0l-4.243,4.243c-0.779-0.78-2.049-0.78-2.828,0l-5.657,5.657c-0.378,0.378-0.586,0.88-0.586,1.414c0,0.535,0.208,1.037,0.586,1.414l0.05,0.05L5.518,44.399c-0.504,0.504-0.813,1.173-0.87,1.882l-0.675,8.397L3.27,59.599c-0.045,0.312,0.06,0.626,0.283,0.849c0.189,0.189,0.444,0.293,0.707,0.293c0.047,0,0.094-0.003,0.142-0.01l4.917-0.702l8.446-0.621c0.717-0.052,1.392-0.361,1.9-0.869l27.078-27.037c0.371,0.346,0.849,0.541,1.359,0.541c0.534,0,1.036-0.208,1.414-0.586l5.657-5.657c0.78-0.78,0.78-2.048,0-2.828l4.243-4.243C60.17,17.973,60.586,16.968,60.586,15.899z M9.593,58.002L6,54.41l0.611-7.605l5.284,1.057l0.576,2.882c0.079,0.396,0.389,0.705,0.784,0.784l2.882,0.576l1.068,5.338L9.593,58.002z M19.026,56.349l-0.953-4.765l16.592-16.592c0.391-0.391,0.391-1.023,0-1.414s-1.023-0.391-1.414,0L16.659,50.169l-2.357-0.472l-0.471-2.357l13.764-13.764c0.391-0.391,0.391-1.023,0-1.414s-1.023-0.391-1.414,0L12.417,45.927l-4.664-0.933l26.256-26.216l11.314,11.314L19.026,56.349z M52.344,25.799C52.343,25.799,52.343,25.799,52.344,25.799c-0.391-0.391-1.024-0.391-1.414,0l-1.415,1.415c-0.391,0.391-0.391,1.023,0,1.414c0,0,0.001,0,0.001,0.001l-1.414,1.414l-0.001,0l0,0L33.958,15.899l1.414-1.414c0.195,0.195,0.451,0.293,0.707,0.293s0.512-0.098,0.707-0.293l1.415-1.415c0.391-0.391,0.391-1.023,0-1.414l1.414-1.414l0.707,0.707L53.05,23.678l0.707,0.707L52.344,25.799z M58,17.314l-4.243,4.243L42.443,10.243L46.686,6c0.756-0.756,2.073-0.756,2.829,0L58,14.485c0.378,0.378,0.586,0.88,0.586,1.414S58.378,16.936,58,17.314z"/><path d="M40.322 15.192l-1.414 1.414c-.391.391-.391 1.023 0 1.414.195.195.451.293.707.293s.512-.098.707-.293l1.414-1.414c.391-.391.391-1.023 0-1.414S40.713 14.802 40.322 15.192zM43.858 18.728l-1.414 1.414c-.391.391-.391 1.023 0 1.414.195.195.451.293.707.293s.512-.098.707-.293l1.414-1.414c.391-.391.391-1.023 0-1.414S44.249 18.337 43.858 18.728zM47.394 22.264l-1.414 1.414c-.391.391-.391 1.023 0 1.414.195.195.451.293.707.293s.512-.098.707-.293l1.414-1.414c.391-.391.391-1.023 0-1.414S47.784 21.873 47.394 22.264zM31.837 26.506l-2.828 2.828c-.391.391-.391 1.023 0 1.414.195.195.451.293.707.293s.512-.098.707-.293l2.828-2.828c.391-.391.391-1.023 0-1.414S32.228 26.116 31.837 26.506z"/></svg>