<?xml version="1.0" encoding="utf-8"?>
<!-- Generator: Adobe Illustrator 24.1.3, SVG Export Plug-In . SVG Version: 6.00 Build 0)  -->
<svg version="1.1" xmlns="http://www.w3.org/2000/svg" xmlns:xlink="http://www.w3.org/1999/xlink" x="0px" y="0px"
	 viewBox="0 0 480 480" style="enable-background:new 0 0 480 480;" xml:space="preserve">
<style type="text/css">
	.st0{fill:#0092CB;}
</style>
<g id="Layer_2">
	<circle class="st0" cx="119.8" cy="208" r="80"/>
</g>
<g id="Layer_1">
	<path d="M384,192c52.9,0,96-43.1,96-96S436.9,0,384,0c-38.4,0-71.6,22.8-86.9,55.5L271.4,46c0.3-2,0.6-3.9,0.6-6
		c0-22.1-17.9-40-40-40s-40,17.9-40,40s17.9,40,40,40c14.3,0,26.8-7.6,33.9-19l25.7,9.5c-2.3,8.1-3.6,16.7-3.6,25.5
		c0,10.5,1.7,20.5,4.9,30l-88,37.3C188.8,132.8,156.8,112,120,112c-11.9,0-23.3,2.3-33.8,6.3L64,71.8C73.7,64.5,80,53,80,40
		C80,17.9,62.1,0,40,0S0,17.9,0,40s17.9,40,40,40c3.3,0,6.5-0.5,9.6-1.3l22.1,46.5C43.2,141.8,24,172.7,24,208
		c0,33.2,16.9,62.5,42.6,79.7L52,314c-3.8-1.2-7.8-2-12-2c-22.1,0-40,17.9-40,40s17.9,40,40,40s40-17.9,40-40
		c0-12.1-5.5-22.9-14.1-30.2l14.7-26.4c12,5.4,25.3,8.6,39.4,8.6c22,0,42.1-7.5,58.3-19.9l31.5,34.6c-16,17.2-25.8,40.1-25.8,65.3
		c0,4.9,0.5,9.7,1.2,14.4l-37,8.8C141.8,393.5,128,384,112,384c-22.1,0-40,17.9-40,40s17.9,40,40,40s40-17.9,40-40
		c0-0.4-0.1-0.9-0.1-1.3l37-8.8c12.6,38.3,48.7,66.1,91.2,66.1c52.9,0,96-43.1,96-96c0-16.4-4.2-31.9-11.4-45.4l47-30.6
		c7.3,7.4,17.3,11.9,28.5,11.9c22.1,0,40-17.9,40-40s-17.9-40-40-40s-40,17.9-40,40c0,5.2,1.1,10.1,2.9,14.6l-47.1,30.6
		c-9.4-12.1-21.7-21.9-35.8-28.4l39-108.2C367,190.7,375.4,192,384,192z M232,64c-13.2,0-24-10.8-24-24s10.8-24,24-24s24,10.8,24,24
		S245.2,64,232,64z M16,40c0-13.2,10.8-24,24-24s24,10.8,24,24S53.2,64,40,64S16,53.2,16,40z M40,376c-13.2,0-24-10.8-24-24
		s10.8-24,24-24s24,10.8,24,24S53.2,376,40,376z M112,448c-13.2,0-24-10.8-24-24s10.8-24,24-24s24,10.8,24,24S125.2,448,112,448z
		 M440,256c13.2,0,24,10.8,24,24s-10.8,24-24,24s-24-10.8-24-24S426.8,256,440,256z M336.9,160.5C340.5,142,356.8,128,376,128h16
		c19.2,0,35.5,14,39.1,32.5c-13.2,9.7-29.5,15.5-47.1,15.5S350.1,170.2,336.9,160.5z M384,112c-13.2,0-24-10.8-24-24s10.8-24,24-24
		s24,10.8,24,24S397.2,112,384,112z M384,16c44.1,0,80,35.9,80,80c0,20-7.4,38.3-19.6,52.3c-5.6-14.8-17.3-26.5-31.9-32.4
		c7.1-7.2,11.5-17.1,11.5-28c0-22.1-17.9-40-40-40s-40,17.9-40,40c0,10.9,4.4,20.7,11.5,28c-14.6,5.8-26.3,17.6-31.9,32.4
		C311.4,134.3,304,116,304,96C304,51.9,339.9,16,384,16z M40,208c0-44.1,35.9-80,80-80s80,35.9,80,80c0,20.1-7.5,38.4-19.7,52.4
		c-5.6-14.8-17.3-26.7-31.9-32.5c7.1-7.2,11.5-17.1,11.5-28c0-22.1-17.9-40-40-40s-40,17.9-40,40c0,10.9,4.4,20.7,11.5,28
		c-14.5,5.8-26.2,17.5-31.8,32.2C47.4,246.2,40,227.9,40,208z M95.8,200c0-13.2,10.8-24,24-24s24,10.8,24,24s-10.8,24-24,24
		S95.8,213.2,95.8,200z M72.8,272.4C76.4,254,92.6,240,111.8,240h16c19.3,0,35.6,14.1,39.1,32.6c-13.2,9.6-29.4,15.4-47,15.4
		C102.3,288,86,282.2,72.8,272.4z M232.8,448.4c3.6-18.5,19.9-32.4,39.1-32.4h16c19.3,0,35.6,14.1,39.1,32.6
		c-13.2,9.6-29.4,15.4-47,15.4C262.3,464,246,458.2,232.8,448.4z M279.8,400c-13.2,0-24-10.8-24-24s10.8-24,24-24s24,10.8,24,24
		S293.1,400,279.8,400z M360,384c0,20.1-7.5,38.4-19.7,52.4c-5.6-14.8-17.3-26.7-31.9-32.5c7.1-7.2,11.5-17.1,11.5-28
		c0-22.1-17.9-40-40-40s-40,17.9-40,40c0,10.9,4.4,20.7,11.5,28c-14.5,5.8-26.2,17.5-31.8,32.2c-12.1-14-19.5-32.2-19.5-52.2
		c0-44.1,35.9-80,80-80S360,339.9,360,384z M305,291.4c-8-2.1-16.3-3.4-25-3.4c-22,0-42.1,7.5-58.3,19.9l-31.5-34.6
		c16-17.2,25.8-40.1,25.8-65.3c0-10.5-1.7-20.5-4.9-30l88-37.3c9.9,18.6,25.7,33.6,44.9,42.4L305,291.4z"/>
</g>
</svg>
