<?xml version="1.0" encoding="utf-8"?>
<!-- Generator: Adobe Illustrator 24.1.3, SVG Export Plug-In . SVG Version: 6.00 Build 0)  -->
<svg version="1.1" id="Layer_1" xmlns="http://www.w3.org/2000/svg" xmlns:xlink="http://www.w3.org/1999/xlink" x="0px" y="0px"
	 viewBox="0 0 512 512" style="enable-background:new 0 0 512 512;" xml:space="preserve">
<style type="text/css">
	.st0{fill:#0092CB;}
</style>
<g id="surface1">
	<path class="st0" d="M256,158.5c-53.8,0-97.6,43.8-97.6,97.6c0,53.8,43.8,97.6,97.6,97.6c53.8,0,97.6-43.8,97.6-97.6
		C353.5,202.2,309.8,158.5,256,158.5z M313.9,237.6L244,307.5c-2.9,2.9-6.8,4.4-10.6,4.4s-7.7-1.5-10.6-4.4l-26.7-26.7
		c-5.9-5.9-5.9-15.4,0-21.2c5.9-5.9,15.4-5.9,21.2,0l16.1,16.1l59.3-59.3c5.9-5.9,15.4-5.9,21.2,0
		C319.8,222.3,319.8,231.8,313.9,237.6z"/>
	<path d="M473.5,138.9l0-0.4c-0.2-4.9-0.4-10.1-0.5-15.9c-0.4-28.2-22.9-51.6-51.1-53.2C363.1,66.2,317.5,47,278.6,9l-0.3-0.3
		c-12.7-11.6-31.8-11.6-44.5,0L233.4,9C194.5,47,149,66.2,90.1,69.5C61.9,71,39.4,94.4,39,122.6c-0.1,5.7-0.2,11-0.5,15.9l0,0.9
		c-1.1,60-2.6,134.7,22.4,202.5c13.7,37.3,34.6,69.7,61.9,96.3c31.1,30.3,71.8,54.4,121,71.6c1.6,0.6,3.3,1,5,1.4
		c2.4,0.5,4.8,0.7,7.2,0.7c2.4,0,4.8-0.2,7.2-0.7c1.7-0.3,3.4-0.8,5-1.4c49.2-17.2,89.9-41.3,120.9-71.6
		c27.3-26.7,48.1-59.1,61.9-96.4C476,273.9,474.6,199.1,473.5,138.9z M256,383.6c-70.4,0-127.6-57.2-127.6-127.6
		S185.6,128.4,256,128.4c70.4,0,127.6,57.2,127.6,127.6S326.4,383.6,256,383.6z"/>
</g>
</svg>
