<svg height="392pt" viewBox="-34 0 392 392.53333" width="392pt" xmlns="http://www.w3.org/2000/svg"><path d="m301.566406 180.90625h-246.761718c-12.898438 0-23.390626 10.492188-23.390626 23.394531v164.839844c0 12.898437 10.492188 23.394531 23.390626 23.394531h246.761718c12.902344 0 23.394532-10.496094 23.394532-23.394531v-164.839844c0-12.902343-10.492188-23.394531-23.394532-23.394531zm9.742188 188.234375c0 5.371094-4.371094 9.738281-9.742188 9.738281h-246.761718c-5.367188 0-9.738282-4.367187-9.738282-9.738281v-164.839844c0-5.375 4.371094-9.742187 9.738282-9.742187h246.761718c5.371094 0 9.742188 4.367187 9.742188 9.742187zm0 0"/><path d="m79.199219 242.347656h54.613281c3.769531 0 6.828125-3.054687 6.828125-6.828125 0-3.773437-3.058594-6.828125-6.828125-6.828125h-54.613281c-3.769531 0-6.824219 3.054688-6.824219 6.828125 0 3.773438 3.054688 6.828125 6.824219 6.828125zm0 0"/><path d="m270.347656 276.480469h-191.148437c-3.769531 0-6.824219 3.054687-6.824219 6.828125 0 3.773437 3.054688 6.824218 6.824219 6.824218h191.148437c3.769532 0 6.824219-3.050781 6.824219-6.824218 0-3.773438-3.054687-6.828125-6.824219-6.828125zm0 0"/><path d="m270.347656 317.441406h-191.148437c-3.769531 0-6.824219 3.050782-6.824219 6.824219s3.054688 6.828125 6.824219 6.828125h191.148437c3.769532 0 6.824219-3.054688 6.824219-6.828125s-3.054687-6.824219-6.824219-6.824219zm0 0"/><path d="m200.152344 146.492188c3.621094 1.089843 7.410156-1 8.476562-4.617188l12.652344-43.015625c.414062.078125.84375.128906 1.277344.128906h.015625l28.59375-.058593 12.628906 42.945312c.875 2.972656 3.59375 4.898438 6.546875 4.898438.636719 0 1.285156-.085938 1.929688-.28125 3.617187-1.058594 5.6875-4.851563 4.625-8.472657l-13.890626-47.21875c-.074218-.386719-.1875-.753906-.328124-1.117187l-19.917969-67.71875c-.855469-2.90625-3.519531-4.898438-6.546875-4.898438-3.03125 0-5.695313 1.992188-6.550782 4.898438l-34.132812 116.054687c-1.066406 3.621094 1.003906 7.414063 4.621094 8.472657zm36.0625-98.40625 10.9375 37.199218-21.890625.042969zm0 0"/><path d="m51.894531 111.785156v-28.28125c.917969.078125 1.84375.121094 2.773438.121094 18.234375 0 33.066406-14.832031 33.066406-33.066406 0-2.082032-.214844-4.148438-.601563-6.183594h22.410157c2.199219 16.425781 12.550781 39.25 41.335937 39.25 3.769532 0 6.828125-3.050781 6.828125-6.824219 0-3.773437-3.058593-6.828125-6.828125-6.828125-27.175781 0-28.136718-29.125-28.160156-32.425781 0-3.773437-3.054688-6.828125-6.824219-6.828125h-64v-23.890625c0-3.773437-3.058593-6.828125-6.828125-6.828125-3.769531 0-6.828125 3.054688-6.828125 6.828125v23.890625h-9.8125c-3.769531 0-6.824219 3.054688-6.824219 6.828125s3.054688 6.828125 6.824219 6.828125h9.8125v67.410156c0 .148438-.398437 15.1875-14.757812 30.28125-2.59375 2.734375-2.488281 7.054688.242187 9.652344 1.320313 1.253906 3.015625 1.882812 4.707032 1.882812 1.800781 0 3.601562-.714843 4.945312-2.121093 18.308594-19.253907 18.519531-38.867188 18.519531-39.695313zm21.269531-67.410156c.042969.234375.0625.472656.132813.710938.519531 1.773437.78125 3.613281.78125 5.472656 0 10.707031-8.707031 19.414062-19.410156 19.414062-.933594 0-1.859375-.074218-2.773438-.207031v-25.390625zm0 0"/><path d="m31.414062 99.839844v-34.988282c0-3.773437-3.058593-6.824218-6.828124-6.824218-3.769532 0-6.824219 3.050781-6.824219 6.824218v34.988282c0 1.78125-.515625 10.667968-10.667969 10.667968-3.769531 0-6.828125 3.050782-6.828125 6.824219 0 3.773438 3.058594 6.828125 6.828125 6.828125 17.84375 0 24.320312-14.546875 24.320312-24.320312zm0 0"/><path d="m99.542969 52.574219c-3.710938-.574219-7.238281 1.875-7.871094 5.59375-2.269531 13.351562-11.007813 50.738281-24.015625 63.191406-2.015625 1.933594-2.65625 4.886719-1.617188 7.480469 1.039063 2.585937 3.550782 4.28125 6.335938 4.28125h61.011719c2.386719 0 4.601562-1.246094 5.84375-3.289063 1.234375-2.046875 1.3125-4.585937.207031-6.699219l-17.492188-33.492187c-1.742187-3.339844-5.867187-4.640625-9.210937-2.894531-3.339844 1.746094-4.636719 5.871094-2.886719 9.214844l12.273438 23.503906h-36.191406c12.832031-22.238282 18.898437-57.238282 19.199218-59.019532.632813-3.710937-1.867187-7.238281-5.585937-7.871093zm0 0"/></svg>